<?xml version="1.0" encoding="UTF-8" standalone="no"?>
<svg  version="1.1" id="Capa_1" x="0px" y="0px" viewBox="0 0 235.592 235.592" style="enable-background:new 0 0 235.592 235.592;" xml:space="preserve" sodipodi:docname="next1.svg" inkscape:version="1.1.1 (3bf5ae0d25, 2021-09-20)" xmlns:inkscape="http://www.inkscape.org/namespaces/inkscape" xmlns:sodipodi="http://sodipodi.sourceforge.net/DTD/sodipodi-0.dtd" xmlns="http://www.w3.org/2000/svg" xmlns:svg="http://www.w3.org/2000/svg">
<path   class="svgFill" style="stroke-width:0.591767"  d="M 112.65527,235.27807 C 91.416442,234.4218 70.715035,227.65936 52.876009,215.75025 23.224368,195.95518 4.414702,164.7819 0.68406083,129.25247 c -0.49943229,-4.75644 -0.49943229,-18.15651 0,-22.91294 C 4.4137767,70.818913 23.30074,39.515546 52.876009,19.836278 69.396501,8.8436077 87.573569,2.4552603 107.65444,0.58434658 c 4.3575,-0.40598288 15.95725,-0.40401172 20.28311,0.003447 19.80583,1.86553792 37.88468,8.12906382 54.04405,18.72388342 24.67223,16.17625 42.50366,41.002664 49.74244,69.255638 2.62419,10.242218 3.55008,17.865255 3.55008,29.228685 0,9.01318 -0.38501,13.61874 -1.76812,21.1504 -5.91685,32.21998 -25.27618,60.76953 -53.14006,78.36659 -16.82452,10.62531 -37.34469,17.16978 -55.96044,17.84738 -2.3427,0.0853 -4.85431,0.19061 -5.58136,0.23408 -0.72704,0.0435 -3.50303,-0.009 -6.16887,-0.11638 z m 15.75169,-15.11692 c 45.29639,-4.75679 82.0664,-38.57208 90.54713,-83.27104 1.26011,-6.64159 1.63129,-10.98623 1.63129,-19.09411 0,-10.27922 -0.80509,-16.81094 -3.20438,-25.997373 -8.70484,-33.329212 -33.62646,-60.199375 -66.17376,-71.347686 -11.10302,-3.80308 -21.28219,-5.469405 -33.41124,-5.469405 -6.94404,0 -12.71115,0.495996 -18.75433,1.612953 -41.675507,7.70286 -74.490616,40.399947 -82.403764,82.107394 -1.267195,6.678947 -1.636481,10.987697 -1.636481,19.094117 0,8.33351 0.377622,12.55192 1.761853,19.68162 3.361953,17.31628 11.238633,33.63563 22.756301,47.14778 2.608996,3.06079 9.197033,9.57929 12.181407,12.05285 16.053694,13.30584 34.703136,21.24277 55.158994,23.47487 5.07935,0.55425 16.30583,0.55843 21.54698,0.008 z" id="path2290" />
<path class="svgFill" style="stroke-width:0.591767"   d="m 68.296276,171.59004 c -2.237075,-0.7336 -3.726852,-2.05603 -4.674419,-4.14935 -0.594216,-1.3127 -0.598377,-1.65787 -0.598377,-49.64469 0,-47.986822 0.0042,-48.33199 0.598377,-49.6447 0.329107,-0.727045 0.954107,-1.697529 1.388888,-2.156631 1.837647,-1.940443 5.133621,-2.746318 7.514078,-1.837213 0.711694,0.271798 9.734765,6.431729 20.051269,13.688736 l 18.757278,13.194558 0.15258,-10.783775 c 0.16765,-11.849808 0.16338,-11.820788 2.05947,-13.980318 1.50077,-1.709279 3.00798,-2.367193 5.4256,-2.368337 1.44583,-6.84e-4 2.35848,0.161282 3.07419,0.545572 1.56365,0.839572 67.29616,47.124518 68.38505,48.152708 2.8802,2.71964 2.87408,7.66624 -0.0128,10.39126 -1.0809,1.02027 -66.82144,47.30759 -68.37219,48.14024 -0.71572,0.38429 -1.62836,0.54626 -3.0742,0.54557 -2.41762,-0.001 -3.92483,-0.65905 -5.4256,-2.36833 -1.8961,-2.15954 -1.89181,-2.13046 -2.05947,-13.98079 l -0.15259,-10.78425 -18.359721,12.93213 c -10.097849,7.11267 -18.878916,13.203 -19.513482,13.53407 -1.255207,0.65488 -3.989715,0.95859 -5.163891,0.57354 z m 32.709954,-37.63748 c 12.52911,-8.80533 22.78149,-16.07578 22.78308,-16.15656 0.003,-0.15239 -45.362425,-32.09107 -45.827726,-32.26416 -0.154131,-0.05734 -0.263226,13.314709 -0.263226,32.26416 0,19.00549 0.108893,32.32166 0.263842,32.26415 0.145113,-0.0538 10.514928,-7.30227 23.04403,-16.10759 z m 47.69875,0.70223 c 12.08187,-8.49988 22.39983,-15.77948 22.9288,-16.1769 l 0.96177,-0.72257 -22.932,-16.13622 c -12.61261,-8.874921 -22.9927,-16.136219 -23.06689,-16.136219 -0.0742,0 -0.12847,3.668273 -0.12064,8.151718 l 0.0142,8.151721 6.76893,4.70009 c 7.95535,5.5239 9.09591,6.46774 9.95144,8.23501 0.76311,1.57638 0.85798,4.19723 0.20823,5.75231 -0.76848,1.83921 -2.07598,2.9586 -9.56783,8.19123 l -7.36027,5.14072 -0.0145,8.15172 c -0.008,4.48344 0.0476,8.15171 0.1236,8.15171 0.0759,0 10.02324,-6.95444 22.1051,-15.45432 z"  id="path2329" /></svg>
