<?xml version="1.0" encoding="UTF-8" standalone="no"?>
<!-- Generator: Adobe Illustrator 19.0.0, SVG Export Plug-In . SVG Version: 6.00 Build 0)  -->

<svg
   version="1.1"
   id="Layer_1"
   x="0px"
   y="0px"
   viewBox="0 0 485 485"
   style="enable-background:new 0 0 485 485;"
   xml:space="preserve"
   sodipodi:docname="pause1.svg"
   inkscape:version="1.1.1 (3bf5ae0d25, 2021-09-20)"
   xmlns:inkscape="http://www.inkscape.org/namespaces/inkscape"
   xmlns:sodipodi="http://sodipodi.sourceforge.net/DTD/sodipodi-0.dtd"
   xmlns="http://www.w3.org/2000/svg"
   xmlns:svg="http://www.w3.org/2000/svg"><defs
   id="defs1876" /><sodipodi:namedview
   id="namedview1874"
   pagecolor="#ffffff"
   bordercolor="#666666"
   borderopacity="1.0"
   inkscape:pageshadow="2"
   inkscape:pageopacity="0.0"
   inkscape:pagecheckerboard="0"
   showgrid="false"
   inkscape:zoom="1.6536082"
   inkscape:cx="242.19763"
   inkscape:cy="241.59289"
   inkscape:window-width="1920"
   inkscape:window-height="991"
   inkscape:window-x="-9"
   inkscape:window-y="-9"
   inkscape:window-maximized="1"
   inkscape:current-layer="Layer_1" />
<g
   id="g1841">
	<path
   d="M413.974,71.026C368.171,25.225,307.274,0,242.5,0S116.829,25.225,71.026,71.026C25.225,116.829,0,177.726,0,242.5   s25.225,125.671,71.026,171.474C116.829,459.775,177.726,485,242.5,485s125.671-25.225,171.474-71.026   C459.775,368.171,485,307.274,485,242.5S459.775,116.829,413.974,71.026z M242.5,455C125.327,455,30,359.673,30,242.5   S125.327,30,242.5,30S455,125.327,455,242.5S359.673,455,242.5,455z"
   id="path1835" />
	<rect
   x="172.5"
   y="140"
   width="55"
   height="205"
   id="rect1837" />
	<rect
   x="257.5"
   y="140"
   width="55"
   height="205"
   id="rect1839" />
</g>
<g
   id="g1843">
</g>
<g
   id="g1845">
</g>
<g
   id="g1847">
</g>
<g
   id="g1849">
</g>
<g
   id="g1851">
</g>
<g
   id="g1853">
</g>
<g
   id="g1855">
</g>
<g
   id="g1857">
</g>
<g
   id="g1859">
</g>
<g
   id="g1861">
</g>
<g
   id="g1863">
</g>
<g
   id="g1865">
</g>
<g
   id="g1867">
</g>
<g
   id="g1869">
</g>
<g
   id="g1871">
</g>
<path
   style="fill:#666666;stroke-width:1.21824"
   d="M 231.00998,484.3513 C 134.86706,480.13596 49.497508,417.79273 15.447145,326.93121 8.5831944,308.61514 3.9713893,288.73943 1.3989749,266.38716 c -1.00348655,-8.71952 -1.00348655,-39.0548 0,-47.77432 C 7.137462,168.74988 23.685189,128.6059 54.370712,90.105985 62.008847,80.522724 80.618472,61.907904 90.239173,54.227526 131.63955,21.176854 180.40621,2.7073796 231.61471,0.68413876 295.75637,-1.8500888 354.72162,18.895527 402.45324,60.789882 c 68.39499,60.030738 97.28644,153.828198 74.59736,242.183938 -14.96413,58.27324 -52.24571,109.9299 -103.14582,142.91689 -34.95448,22.65306 -77.76154,36.66356 -116.76079,38.21513 -4.39553,0.17487 -9.76073,0.40306 -11.92267,0.50708 -2.16194,0.10401 -8.55704,-0.0137 -14.21134,-0.26162 z m 37.79613,-30.75444 c 25.62385,-3.31613 46.45213,-9.63882 69.04875,-20.96065 59.03725,-29.58003 101.00367,-84.88625 113.53089,-149.61875 2.97347,-15.36494 3.35466,-19.96895 3.35466,-40.51746 0,-20.95406 -0.38386,-25.37505 -3.63107,-41.81964 C 439.6067,142.42834 403.22595,90.821414 351.95761,60.031377 299.07003,28.268876 234.50752,21.111552 175.67643,40.489051 103.51601,64.256906 49.040422,125.68802 33.928339,200.33578 c -3.179868,15.7073 -3.653281,21.15926 -3.661272,42.16422 -0.008,20.96151 0.372938,25.3576 3.623588,41.81964 12.595156,63.78477 54.766414,119.01169 113.254485,148.31657 26.35103,13.20294 51.59809,19.98828 83.2601,22.37681 7.36055,0.55526 29.46707,-0.25998 38.40087,-1.41616 z"
   id="path1972" /><path
   style="fill:#666666;stroke-width:1.21824"
   d="M 172.65274,242.5 V 140.29925 h 27.21322 27.21322 V 242.5 344.70075 h -27.21322 -27.21322 z"
   id="path2011" /><path
   style="fill:#666666;stroke-width:1.21824"
   d="M 257.92082,242.5 V 140.29925 h 27.21322 27.21322 V 242.5 344.70075 h -27.21322 -27.21322 z"
   id="path2050" /></svg>
